<svg xmlns="http://www.w3.org/2000/svg" data-name="Layer 1" viewBox="0 0 100 125" x="0px" y="0px"><title>114</title><path d="M56.46,5A41.48,41.48,0,0,0,24.17,72.58v.87A13.54,13.54,0,0,1,10.65,87H6a4,4,0,1,0,0,8h4.6A21.45,21.45,0,0,0,31.29,79.49,41.49,41.49,0,1,0,56.46,5ZM37.95,55.53a9,9,0,1,1,9-9A9,9,0,0,1,37.95,55.53ZM56.46,74a9,9,0,1,1,9-9A9,9,0,0,1,56.46,74Zm0-37a9,9,0,1,1,9-9A9,9,0,0,1,56.46,37ZM75,55.53a9,9,0,1,1,9-9A9,9,0,0,1,75,55.53Z"/><text x="0" y="115" fill="#000000" font-size="5px" font-weight="bold" font-family="'Helvetica Neue', Helvetica, Arial-Unicode, Arial, Sans-serif">Created by Ahock</text><text x="0" y="120" fill="#000000" font-size="5px" font-weight="bold" font-family="'Helvetica Neue', Helvetica, Arial-Unicode, Arial, Sans-serif">from the Noun Project</text></svg>